<?xml version="1.0" encoding="UTF-8"?>
<svg version="1.1" xmlns="http://www.w3.org/2000/svg" width="504" height="477">
    <path d="M0 0 C4.26598713 3.17857864 7.46504836 6.20764509 9.1875 11.375 C9.2560495 13.26970816 9.27230372 15.1666834 9.25 17.0625 C9.24097656 18.05636719 9.23195312 19.05023438 9.22265625 20.07421875 C9.20525391 21.21310547 9.20525391 21.21310547 9.1875 22.375 C10.43362061 22.09712646 11.67974121 21.81925293 12.96362305 21.53295898 C17.59261689 20.50350548 22.22441865 19.48721542 26.85717773 18.47485352 C28.86089692 18.03507598 30.86383955 17.59174446 32.8659668 17.14477539 C35.74590852 16.50248623 38.62841193 15.87307971 41.51171875 15.24609375 C42.40461105 15.04406845 43.29750336 14.84204315 44.217453 14.63389587 C51.91271543 12.9834786 51.91271543 12.9834786 56.1875 14.375 C56.5175 16.025 56.8475 17.675 57.1875 19.375 C75.33342001 16.03992103 93.3649192 12.24265334 111.39208984 8.32250977 C112.2896701 8.12801239 113.18725037 7.93351501 114.11203003 7.73312378 C115.81566464 7.36376394 117.51891026 6.99260412 119.22171021 6.61941528 C124.96342172 5.375 124.96342172 5.375 127.1875 5.375 C128.18963451 10.00035337 129.1863931 14.62682046 130.17822266 19.25439453 C130.51627041 20.82795334 130.85577609 22.40119969 131.19677734 23.97412109 C131.68712325 26.23714606 132.17218743 28.50124882 132.65625 30.765625 C132.88592468 31.81740936 132.88592468 31.81740936 133.12023926 32.89044189 C133.81528313 36.1655789 134.1875 39.00397874 134.1875 42.375 C148.0475 42.375 161.9075 42.375 176.1875 42.375 C177.1875 44.375 177.1875 44.375 177.1875 50.375 C200.6175 50.375 224.0475 50.375 248.1875 50.375 C248.1875 172.475 248.1875 294.575 248.1875 420.375 C159.4175 420.375 70.6475 420.375 -20.8125 420.375 C-20.8125 418.725 -20.8125 417.075 -20.8125 415.375 C-21.53727539 415.54628418 -22.26205078 415.71756836 -23.00878906 415.89404297 C-26.35909267 416.68338431 -29.71077515 417.46671648 -33.0625 418.25 C-34.77179688 418.65412109 -34.77179688 418.65412109 -36.515625 419.06640625 C-43.91404175 420.78990106 -51.30728819 422.20685479 -58.8125 423.375 C-62.55032765 409.11027626 -65.61616747 394.70807359 -68.7109375 380.29296875 C-69.29516977 377.57981515 -69.88021723 374.86683751 -70.46524048 372.15385437 C-71.71921998 366.33671325 -72.97134183 360.51917493 -74.22216797 354.70135498 C-76.04272487 346.23373751 -77.86628285 337.76676851 -79.6906848 329.29997873 C-80.54502667 325.33509359 -81.3992656 321.37018626 -82.253479 317.40527344 C-82.50985496 316.21528397 -82.50985496 316.21528397 -82.77141023 315.00125432 C-83.99745372 309.31017854 -85.22294732 303.61898451 -86.44818115 297.92773438 C-91.28418518 275.46467817 -96.12741805 253.00319188 -100.9765625 230.54296875 C-101.311121 228.99331615 -101.64567885 227.44366342 -101.98023605 225.89401054 C-103.62288735 218.28540672 -105.26566617 210.67683044 -106.9085083 203.06826782 C-108.60274059 195.22166628 -110.29679389 187.3750261 -111.99062228 179.52833736 C-112.28668071 178.15684419 -112.58274461 176.7853522 -112.87881398 175.41386139 C-114.46462784 168.06778625 -116.04994183 160.72160385 -117.63394165 153.37513733 C-118.19864625 150.75627145 -118.76338016 148.13741189 -119.328125 145.51855469 C-119.46770528 144.8712404 -119.60728555 144.2239261 -119.75109553 143.55699623 C-121.59029383 135.02842368 -123.4342885 126.50090297 -125.28284645 117.97435415 C-126.60825863 111.86072398 -127.93173175 105.74667617 -129.25389671 99.63234293 C-130.19820673 95.26614869 -131.14514205 90.90053488 -132.09403992 86.53533554 C-132.81255906 83.2260759 -133.52706251 79.91595176 -134.2421875 76.60595703 C-134.50392761 75.40582096 -134.76566772 74.20568489 -135.03533936 72.96918106 C-135.27101624 71.87479595 -135.50669312 70.78041084 -135.74951172 69.65286255 C-135.95599335 68.70048265 -136.16247498 67.74810276 -136.37521362 66.76686287 C-136.8125 64.375 -136.8125 64.375 -136.8125 61.375 C-128.42522141 59.54353783 -120.03675391 57.71766466 -111.64671803 55.89888 C-107.7507744 55.0541378 -103.85526573 54.20748907 -99.96069336 53.35644531 C-96.2010074 52.53495106 -92.44025543 51.71851469 -88.67871666 50.9055481 C-87.24504307 50.59476969 -85.81176038 50.28218222 -84.37888527 49.96774292 C-82.3692418 49.52706003 -80.35829467 49.09287624 -78.34692383 48.66015625 C-77.20330887 48.41144775 -76.05969391 48.16273926 -74.88142395 47.90649414 C-72.11033303 47.42658046 -69.61534999 47.26736402 -66.8125 47.375 C-67.01875 46.26125 -67.225 45.1475 -67.4375 44 C-67.56125 42.80375 -67.685 41.6075 -67.8125 40.375 C-65.58470791 38.14720791 -64.72819059 37.95014473 -61.72998047 37.32177734 C-60.88925995 37.14174164 -60.04853943 36.96170593 -59.18234253 36.7762146 C-58.27396637 36.58967316 -57.36559021 36.40313171 -56.4296875 36.2109375 C-55.50028351 36.01400299 -54.57087952 35.81706848 -53.61331177 35.61416626 C-50.63947587 34.98572394 -47.66357205 34.36775678 -44.6875 33.75 C-42.67303239 33.32620803 -40.65870742 32.90173743 -38.64453125 32.4765625 C-33.70214261 31.43482142 -28.75787413 30.40247078 -23.8125 29.375 C-23.67661639 27.04055646 -23.67661639 27.04055646 -25.375 23.875 C-27.26051617 18.87113016 -27.27826668 14.51332653 -25.8125 9.375 C-23.59992009 5.12943271 -20.92231648 2.18213926 -17.0625 -0.625 C-11.31948826 -2.39208054 -5.46228003 -2.85040377 0 0 Z M-15.8125 9.375 C-18.3040904 13.1123856 -18.27043285 14.94831583 -17.8125 19.375 C-16.40371904 22.3651643 -16.40371904 22.3651643 -13.8125 24.375 C-9.95084846 25.49838954 -7.80512141 25.7810724 -4.0625 24.25 C-1.47151488 22.09084574 -0.11810777 20.49395189 1.1875 17.375 C1.11438732 13.79247869 0.61387489 11.95929152 -1.5 9.0625 C-6.67535506 5.28588955 -10.59318998 6.05362089 -15.8125 9.375 Z " fill="#FEFEFE" transform="translate(178.8125,20.625)"/>
    <path d="M0 0 C4.26598713 3.17857864 7.46504836 6.20764509 9.1875 11.375 C9.2560495 13.26970816 9.27230372 15.1666834 9.25 17.0625 C9.24097656 18.05636719 9.23195312 19.05023438 9.22265625 20.07421875 C9.20525391 21.21310547 9.20525391 21.21310547 9.1875 22.375 C10.43362061 22.09712646 11.67974121 21.81925293 12.96362305 21.53295898 C17.59261689 20.50350548 22.22441865 19.48721542 26.85717773 18.47485352 C28.86089692 18.03507598 30.86383955 17.59174446 32.8659668 17.14477539 C35.74590852 16.50248623 38.62841193 15.87307971 41.51171875 15.24609375 C42.40461105 15.04406845 43.29750336 14.84204315 44.217453 14.63389587 C51.91271543 12.9834786 51.91271543 12.9834786 56.1875 14.375 C56.5175 16.025 56.8475 17.675 57.1875 19.375 C75.33342001 16.03992103 93.3649192 12.24265334 111.39208984 8.32250977 C112.2896701 8.12801239 113.18725037 7.93351501 114.11203003 7.73312378 C115.81566464 7.36376394 117.51891026 6.99260412 119.22171021 6.61941528 C124.96342172 5.375 124.96342172 5.375 127.1875 5.375 C128.18963451 10.00035337 129.1863931 14.62682046 130.17822266 19.25439453 C130.51627041 20.82795334 130.85577609 22.40119969 131.19677734 23.97412109 C131.68712325 26.23714606 132.17218743 28.50124882 132.65625 30.765625 C132.88592468 31.81740936 132.88592468 31.81740936 133.12023926 32.89044189 C133.81528313 36.1655789 134.1875 39.00397874 134.1875 42.375 C148.0475 42.375 161.9075 42.375 176.1875 42.375 C177.1875 44.375 177.1875 44.375 177.1875 50.375 C200.6175 50.375 224.0475 50.375 248.1875 50.375 C248.1875 172.475 248.1875 294.575 248.1875 420.375 C159.4175 420.375 70.6475 420.375 -20.8125 420.375 C-20.8125 418.725 -20.8125 417.075 -20.8125 415.375 C-21.53727539 415.54628418 -22.26205078 415.71756836 -23.00878906 415.89404297 C-26.35909267 416.68338431 -29.71077515 417.46671648 -33.0625 418.25 C-34.77179688 418.65412109 -34.77179688 418.65412109 -36.515625 419.06640625 C-43.91404175 420.78990106 -51.30728819 422.20685479 -58.8125 423.375 C-62.55032765 409.11027626 -65.61616747 394.70807359 -68.7109375 380.29296875 C-69.29516977 377.57981515 -69.88021723 374.86683751 -70.46524048 372.15385437 C-71.71921998 366.33671325 -72.97134183 360.51917493 -74.22216797 354.70135498 C-76.04272487 346.23373751 -77.86628285 337.76676851 -79.6906848 329.29997873 C-80.54502667 325.33509359 -81.3992656 321.37018626 -82.253479 317.40527344 C-82.50985496 316.21528397 -82.50985496 316.21528397 -82.77141023 315.00125432 C-83.99745372 309.31017854 -85.22294732 303.61898451 -86.44818115 297.92773438 C-91.28418518 275.46467817 -96.12741805 253.00319188 -100.9765625 230.54296875 C-101.311121 228.99331615 -101.64567885 227.44366342 -101.98023605 225.89401054 C-103.62288735 218.28540672 -105.26566617 210.67683044 -106.9085083 203.06826782 C-108.60274059 195.22166628 -110.29679389 187.3750261 -111.99062228 179.52833736 C-112.28668071 178.15684419 -112.58274461 176.7853522 -112.87881398 175.41386139 C-114.46462784 168.06778625 -116.04994183 160.72160385 -117.63394165 153.37513733 C-118.19864625 150.75627145 -118.76338016 148.13741189 -119.328125 145.51855469 C-119.46770528 144.8712404 -119.60728555 144.2239261 -119.75109553 143.55699623 C-121.59029383 135.02842368 -123.4342885 126.50090297 -125.28284645 117.97435415 C-126.60825863 111.86072398 -127.93173175 105.74667617 -129.25389671 99.63234293 C-130.19820673 95.26614869 -131.14514205 90.90053488 -132.09403992 86.53533554 C-132.81255906 83.2260759 -133.52706251 79.91595176 -134.2421875 76.60595703 C-134.50392761 75.40582096 -134.76566772 74.20568489 -135.03533936 72.96918106 C-135.27101624 71.87479595 -135.50669312 70.78041084 -135.74951172 69.65286255 C-135.95599335 68.70048265 -136.16247498 67.74810276 -136.37521362 66.76686287 C-136.8125 64.375 -136.8125 64.375 -136.8125 61.375 C-128.42522141 59.54353783 -120.03675391 57.71766466 -111.64671803 55.89888 C-107.7507744 55.0541378 -103.85526573 54.20748907 -99.96069336 53.35644531 C-96.2010074 52.53495106 -92.44025543 51.71851469 -88.67871666 50.9055481 C-87.24504307 50.59476969 -85.81176038 50.28218222 -84.37888527 49.96774292 C-82.3692418 49.52706003 -80.35829467 49.09287624 -78.34692383 48.66015625 C-77.20330887 48.41144775 -76.05969391 48.16273926 -74.88142395 47.90649414 C-72.11033303 47.42658046 -69.61534999 47.26736402 -66.8125 47.375 C-67.01875 46.26125 -67.225 45.1475 -67.4375 44 C-67.56125 42.80375 -67.685 41.6075 -67.8125 40.375 C-65.58470791 38.14720791 -64.72819059 37.95014473 -61.72998047 37.32177734 C-60.88925995 37.14174164 -60.04853943 36.96170593 -59.18234253 36.7762146 C-58.27396637 36.58967316 -57.36559021 36.40313171 -56.4296875 36.2109375 C-55.50028351 36.01400299 -54.57087952 35.81706848 -53.61331177 35.61416626 C-50.63947587 34.98572394 -47.66357205 34.36775678 -44.6875 33.75 C-42.67303239 33.32620803 -40.65870742 32.90173743 -38.64453125 32.4765625 C-33.70214261 31.43482142 -28.75787413 30.40247078 -23.8125 29.375 C-23.67661639 27.04055646 -23.67661639 27.04055646 -25.375 23.875 C-27.26051617 18.87113016 -27.27826668 14.51332653 -25.8125 9.375 C-23.59992009 5.12943271 -20.92231648 2.18213926 -17.0625 -0.625 C-11.31948826 -2.39208054 -5.46228003 -2.85040377 0 0 Z M-15.8125 9.375 C-18.3040904 13.1123856 -18.27043285 14.94831583 -17.8125 19.375 C-16.40371904 22.3651643 -16.40371904 22.3651643 -13.8125 24.375 C-9.95084846 25.49838954 -7.80512141 25.7810724 -4.0625 24.25 C-1.47151488 22.09084574 -0.11810777 20.49395189 1.1875 17.375 C1.11438732 13.79247869 0.61387489 11.95929152 -1.5 9.0625 C-6.67535506 5.28588955 -10.59318998 6.05362089 -15.8125 9.375 Z M-12.8125 59.375 C-12.8125 174.545 -12.8125 289.715 -12.8125 408.375 C70.6775 408.375 154.1675 408.375 240.1875 408.375 C240.1875 293.205 240.1875 178.035 240.1875 59.375 C219.0675 59.375 197.9475 59.375 176.1875 59.375 C176.1875 63.665 176.1875 67.955 176.1875 72.375 C135.2675 72.375 94.3475 72.375 52.1875 72.375 C52.1875 68.085 52.1875 63.795 52.1875 59.375 C30.7375 59.375 9.2875 59.375 -12.8125 59.375 Z " fill="#F9F9F9" transform="translate(178.8125,20.625)"/>
    <path d="M0 0 C4.26598713 3.17857864 7.46504836 6.20764509 9.1875 11.375 C9.2560495 13.26970816 9.27230372 15.1666834 9.25 17.0625 C9.24097656 18.05636719 9.23195312 19.05023438 9.22265625 20.07421875 C9.20525391 21.21310547 9.20525391 21.21310547 9.1875 22.375 C10.43362061 22.09712646 11.67974121 21.81925293 12.96362305 21.53295898 C17.59261689 20.50350548 22.22441865 19.48721542 26.85717773 18.47485352 C28.86089692 18.03507598 30.86383955 17.59174446 32.8659668 17.14477539 C35.74590852 16.50248623 38.62841193 15.87307971 41.51171875 15.24609375 C42.40461105 15.04406845 43.29750336 14.84204315 44.217453 14.63389587 C51.91271543 12.9834786 51.91271543 12.9834786 56.1875 14.375 C56.5175 16.025 56.8475 17.675 57.1875 19.375 C75.33342001 16.03992103 93.3649192 12.24265334 111.39208984 8.32250977 C112.2896701 8.12801239 113.18725037 7.93351501 114.11203003 7.73312378 C115.81566464 7.36376394 117.51891026 6.99260412 119.22171021 6.61941528 C124.96342172 5.375 124.96342172 5.375 127.1875 5.375 C128.18963451 10.00035337 129.1863931 14.62682046 130.17822266 19.25439453 C130.51627041 20.82795334 130.85577609 22.40119969 131.19677734 23.97412109 C131.68712325 26.23714606 132.17218743 28.50124882 132.65625 30.765625 C132.88592468 31.81740936 132.88592468 31.81740936 133.12023926 32.89044189 C133.81528313 36.1655789 134.1875 39.00397874 134.1875 42.375 C148.0475 42.375 161.9075 42.375 176.1875 42.375 C177.1875 44.375 177.1875 44.375 177.1875 50.375 C200.6175 50.375 224.0475 50.375 248.1875 50.375 C248.1875 172.475 248.1875 294.575 248.1875 420.375 C159.4175 420.375 70.6475 420.375 -20.8125 420.375 C-20.8125 418.725 -20.8125 417.075 -20.8125 415.375 C-21.53727539 415.54628418 -22.26205078 415.71756836 -23.00878906 415.89404297 C-26.35909267 416.68338431 -29.71077515 417.46671648 -33.0625 418.25 C-34.77179688 418.65412109 -34.77179688 418.65412109 -36.515625 419.06640625 C-43.91404175 420.78990106 -51.30728819 422.20685479 -58.8125 423.375 C-62.55032765 409.11027626 -65.61616747 394.70807359 -68.7109375 380.29296875 C-69.29516977 377.57981515 -69.88021723 374.86683751 -70.46524048 372.15385437 C-71.71921998 366.33671325 -72.97134183 360.51917493 -74.22216797 354.70135498 C-76.04272487 346.23373751 -77.86628285 337.76676851 -79.6906848 329.29997873 C-80.54502667 325.33509359 -81.3992656 321.37018626 -82.253479 317.40527344 C-82.50985496 316.21528397 -82.50985496 316.21528397 -82.77141023 315.00125432 C-83.99745372 309.31017854 -85.22294732 303.61898451 -86.44818115 297.92773438 C-91.28418518 275.46467817 -96.12741805 253.00319188 -100.9765625 230.54296875 C-101.311121 228.99331615 -101.64567885 227.44366342 -101.98023605 225.89401054 C-103.62288735 218.28540672 -105.26566617 210.67683044 -106.9085083 203.06826782 C-108.60274059 195.22166628 -110.29679389 187.3750261 -111.99062228 179.52833736 C-112.28668071 178.15684419 -112.58274461 176.7853522 -112.87881398 175.41386139 C-114.46462784 168.06778625 -116.04994183 160.72160385 -117.63394165 153.37513733 C-118.19864625 150.75627145 -118.76338016 148.13741189 -119.328125 145.51855469 C-119.46770528 144.8712404 -119.60728555 144.2239261 -119.75109553 143.55699623 C-121.59029383 135.02842368 -123.4342885 126.50090297 -125.28284645 117.97435415 C-126.60825863 111.86072398 -127.93173175 105.74667617 -129.25389671 99.63234293 C-130.19820673 95.26614869 -131.14514205 90.90053488 -132.09403992 86.53533554 C-132.81255906 83.2260759 -133.52706251 79.91595176 -134.2421875 76.60595703 C-134.50392761 75.40582096 -134.76566772 74.20568489 -135.03533936 72.96918106 C-135.27101624 71.87479595 -135.50669312 70.78041084 -135.74951172 69.65286255 C-135.95599335 68.70048265 -136.16247498 67.74810276 -136.37521362 66.76686287 C-136.8125 64.375 -136.8125 64.375 -136.8125 61.375 C-128.42522141 59.54353783 -120.03675391 57.71766466 -111.64671803 55.89888 C-107.7507744 55.0541378 -103.85526573 54.20748907 -99.96069336 53.35644531 C-96.2010074 52.53495106 -92.44025543 51.71851469 -88.67871666 50.9055481 C-87.24504307 50.59476969 -85.81176038 50.28218222 -84.37888527 49.96774292 C-82.3692418 49.52706003 -80.35829467 49.09287624 -78.34692383 48.66015625 C-77.20330887 48.41144775 -76.05969391 48.16273926 -74.88142395 47.90649414 C-72.11033303 47.42658046 -69.61534999 47.26736402 -66.8125 47.375 C-67.01875 46.26125 -67.225 45.1475 -67.4375 44 C-67.56125 42.80375 -67.685 41.6075 -67.8125 40.375 C-65.58470791 38.14720791 -64.72819059 37.95014473 -61.72998047 37.32177734 C-60.88925995 37.14174164 -60.04853943 36.96170593 -59.18234253 36.7762146 C-58.27396637 36.58967316 -57.36559021 36.40313171 -56.4296875 36.2109375 C-55.50028351 36.01400299 -54.57087952 35.81706848 -53.61331177 35.61416626 C-50.63947587 34.98572394 -47.66357205 34.36775678 -44.6875 33.75 C-42.67303239 33.32620803 -40.65870742 32.90173743 -38.64453125 32.4765625 C-33.70214261 31.43482142 -28.75787413 30.40247078 -23.8125 29.375 C-23.67661639 27.04055646 -23.67661639 27.04055646 -25.375 23.875 C-27.26051617 18.87113016 -27.27826668 14.51332653 -25.8125 9.375 C-23.59992009 5.12943271 -20.92231648 2.18213926 -17.0625 -0.625 C-11.31948826 -2.39208054 -5.46228003 -2.85040377 0 0 Z M-15.8125 9.375 C-18.3040904 13.1123856 -18.27043285 14.94831583 -17.8125 19.375 C-16.40371904 22.3651643 -16.40371904 22.3651643 -13.8125 24.375 C-9.95084846 25.49838954 -7.80512141 25.7810724 -4.0625 24.25 C-1.47151488 22.09084574 -0.11810777 20.49395189 1.1875 17.375 C1.11438732 13.79247869 0.61387489 11.95929152 -1.5 9.0625 C-6.67535506 5.28588955 -10.59318998 6.05362089 -15.8125 9.375 Z M-75.9296875 57.73046875 C-76.61593201 57.87248718 -77.30217651 58.01450562 -78.00921631 58.16082764 C-80.23636402 58.62315334 -82.46192665 59.09265939 -84.6875 59.5625 C-86.21786774 59.88191995 -87.74830439 60.20100996 -89.27880859 60.51977539 C-101.47226348 63.06594608 -113.64947766 65.68724456 -125.8125 68.375 C-126.94532951 71.76464215 -126.65975458 73.98970472 -125.80859375 77.43359375 C-125.56568604 78.44381592 -125.32277832 79.45403809 -125.07250977 80.49487305 C-124.80108154 81.58968994 -124.52965332 82.68450684 -124.25 83.8125 C-121.95925733 93.36673621 -119.82488022 102.93290922 -117.875 112.5625 C-115.83367853 122.59329333 -113.66040035 132.58454473 -111.375 142.5625 C-108.88418485 153.45321368 -106.54039279 164.36500725 -104.3125 175.3125 C-101.83364946 187.48871445 -99.25477604 199.63633776 -96.578125 211.77099609 C-94.89968815 219.38511715 -93.24375944 227.00351807 -91.6171875 234.62890625 C-91.42890381 235.51158173 -91.24062012 236.3942572 -91.04663086 237.30368042 C-90.66201581 239.10739026 -90.277454 240.91111144 -89.89294434 242.71484375 C-87.07048338 255.95399607 -84.20662684 269.17918567 -81.1875 282.375 C-78.59030516 293.72953674 -76.19249284 305.11392502 -73.87545776 316.52792358 C-71.53145858 328.06197372 -69.00062993 339.54160307 -66.3737793 351.0144043 C-64.07707736 361.08764706 -61.95305576 371.19030989 -59.8840332 381.3125 C-57.96523424 390.69125963 -55.93675297 400.04078253 -53.8125 409.375 C-46.52067619 408.70096587 -39.47286206 407.39202586 -32.3125 405.875 C-31.21679688 405.64941406 -30.12109375 405.42382812 -28.9921875 405.19140625 C-24.03453352 404.56000071 -24.03453352 404.56000071 -19.8125 402.375 C-19.71501612 400.57138797 -19.68878591 398.76390799 -19.68945217 396.95766354 C-19.68746112 395.77480139 -19.68547007 394.59193924 -19.68341869 393.37323278 C-19.68633153 392.05711415 -19.68924437 390.74099552 -19.69224548 389.38499451 C-19.6918099 387.98582393 -19.69093524 386.58665343 -19.68965632 385.18748337 C-19.68740873 381.32459888 -19.69143622 377.46174185 -19.69643438 373.59886086 C-19.70073494 369.44001203 -19.69929274 365.28116488 -19.6985321 361.12231445 C-19.69800662 353.91082324 -19.70115599 346.69934104 -19.70676994 339.4878521 C-19.71488161 329.06112611 -19.71749982 318.6344045 -19.71875793 308.2076757 C-19.72094898 291.29282625 -19.72761049 274.37798161 -19.73706055 257.46313477 C-19.74623331 241.02758814 -19.75331481 224.59204281 -19.75756836 208.15649414 C-19.75796244 206.63800097 -19.75796244 206.63800097 -19.75836449 205.08883118 C-19.75966949 200.01050167 -19.7609332 194.93217214 -19.76217639 189.85384262 C-19.77255064 147.69422506 -19.79017038 105.53461281 -19.8125 63.375 C-23.29729484 62.61325492 -25.66655408 62.31387565 -29.140625 63.1875 C-29.94113281 63.37570313 -30.74164063 63.56390625 -31.56640625 63.7578125 C-33.21574801 64.16563096 -34.86421005 64.57702582 -36.51171875 64.9921875 C-41.60468525 66.18190447 -45.69032467 66.38042349 -50.86181641 65.60986328 C-53.23190927 65.32450291 -55.10077976 65.6095592 -57.375 66.3125 C-58.509375 66.663125 -59.64375 67.01375 -60.8125 67.375 C-60.8125 65.395 -60.8125 63.415 -60.8125 61.375 C-61.4725 61.375 -62.1325 61.375 -62.8125 61.375 C-63.3075 58.9 -63.3075 58.9 -63.8125 56.375 C-68.03285484 56.20103194 -71.80191328 56.86841267 -75.9296875 57.73046875 Z M-12.8125 59.375 C-12.8125 174.545 -12.8125 289.715 -12.8125 408.375 C70.6775 408.375 154.1675 408.375 240.1875 408.375 C240.1875 293.205 240.1875 178.035 240.1875 59.375 C219.0675 59.375 197.9475 59.375 176.1875 59.375 C176.1875 63.665 176.1875 67.955 176.1875 72.375 C135.2675 72.375 94.3475 72.375 52.1875 72.375 C52.1875 68.085 52.1875 63.795 52.1875 59.375 C30.7375 59.375 9.2875 59.375 -12.8125 59.375 Z " fill="#DFDFDF" transform="translate(178.8125,20.625)"/>
    <path d="M0 0 C4.26598713 3.17857864 7.46504836 6.20764509 9.1875 11.375 C9.2560495 13.26970816 9.27230372 15.1666834 9.25 17.0625 C9.24097656 18.05636719 9.23195313 19.05023438 9.22265625 20.07421875 C9.21105469 20.83347656 9.19945312 21.59273437 9.1875 22.375 C10.43362061 22.09712646 11.67974121 21.81925293 12.96362305 21.53295898 C17.59261689 20.50350548 22.22441865 19.48721542 26.85717773 18.47485352 C28.86089692 18.03507598 30.86383955 17.59174446 32.8659668 17.14477539 C35.74590852 16.50248623 38.62841193 15.87307971 41.51171875 15.24609375 C42.40461105 15.04406845 43.29750336 14.84204315 44.217453 14.63389587 C51.91271543 12.9834786 51.91271543 12.9834786 56.1875 14.375 C56.6825 16.85 56.6825 16.85 57.1875 19.375 C75.33342001 16.03992103 93.3649192 12.24265334 111.39208984 8.32250977 C112.2896701 8.12801239 113.18725037 7.93351501 114.11203003 7.73312378 C115.81566464 7.36376394 117.51891026 6.99260412 119.22171021 6.61941528 C124.96342172 5.375 124.96342172 5.375 127.1875 5.375 C128.18963451 10.00035337 129.1863931 14.62682046 130.17822266 19.25439453 C130.51627041 20.82795334 130.85577609 22.40119969 131.19677734 23.97412109 C131.68712325 26.23714606 132.17218743 28.50124882 132.65625 30.765625 C132.80936646 31.46681458 132.96248291 32.16800415 133.12023926 32.89044189 C133.81528313 36.1655789 134.1875 39.00397874 134.1875 42.375 C148.0475 42.375 161.9075 42.375 176.1875 42.375 C180.65963595 51.31927191 176.54441531 62.38137146 176.1875 72.375 C135.2675 72.375 94.3475 72.375 52.1875 72.375 C52.1875 63.135 52.1875 53.895 52.1875 44.375 C48.124375 45.365 44.06125 46.355 39.875 47.375 C19.84444357 51.78685462 -0.42603079 50.93420122 -20.8125 50.375 C-20.8125 53.345 -20.8125 56.315 -20.8125 59.375 C-27.97566366 61.51325781 -35.16312945 63.10225659 -42.5 64.5 C-43.39033936 64.67047852 -44.28067871 64.84095703 -45.19799805 65.01660156 C-50.39075982 65.9878609 -55.56366055 66.77618013 -60.8125 67.375 C-61.48305285 64.43833774 -62.14909053 61.50077641 -62.8125 58.5625 C-63.00328125 57.72912109 -63.1940625 56.89574219 -63.390625 56.03710938 C-63.57109375 55.23466797 -63.7515625 54.43222656 -63.9375 53.60546875 C-64.10507813 52.86707764 -64.27265625 52.12868652 -64.4453125 51.36791992 C-64.8125 49.375 -64.8125 49.375 -64.8125 46.375 C-65.4725 46.375 -66.1325 46.375 -66.8125 46.375 C-67.4375 43.5 -67.4375 43.5 -67.8125 40.375 C-65.58470791 38.14720791 -64.72819059 37.95014473 -61.72998047 37.32177734 C-60.88925995 37.14174164 -60.04853943 36.96170593 -59.18234253 36.7762146 C-58.27396637 36.58967316 -57.36559021 36.40313171 -56.4296875 36.2109375 C-55.50028351 36.01400299 -54.57087952 35.81706848 -53.61331177 35.61416626 C-50.63947587 34.98572394 -47.66357205 34.36775678 -44.6875 33.75 C-42.67303239 33.32620803 -40.65870742 32.90173743 -38.64453125 32.4765625 C-33.70214261 31.43482142 -28.75787413 30.40247078 -23.8125 29.375 C-23.67661639 27.04055646 -23.67661639 27.04055646 -25.375 23.875 C-27.26051617 18.87113016 -27.27826668 14.51332653 -25.8125 9.375 C-23.59992009 5.12943271 -20.92231648 2.18213926 -17.0625 -0.625 C-11.31948826 -2.39208054 -5.46228003 -2.85040377 0 0 Z M-15.8125 9.375 C-18.3040904 13.1123856 -18.27043285 14.94831583 -17.8125 19.375 C-16.40371904 22.3651643 -16.40371904 22.3651643 -13.8125 24.375 C-9.95084846 25.49838954 -7.80512141 25.7810724 -4.0625 24.25 C-1.47151488 22.09084574 -0.11810777 20.49395189 1.1875 17.375 C1.11438732 13.79247869 0.61387489 11.95929152 -1.5 9.0625 C-6.67535506 5.28588955 -10.59318998 6.05362089 -15.8125 9.375 Z " fill="#5953D7" transform="translate(178.8125,20.625)"/>
    <path d="M0 0 C0.50643553 2.22771342 1.0048962 4.45724076 1.5 6.6875 C1.7784375 7.92886719 2.056875 9.17023437 2.34375 10.44921875 C2.89354126 13.42398218 3.13795705 15.99368602 3 19 C2.29875 18.236875 1.5975 17.47375 0.875 16.6875 C-4.52363721 11.64094783 -9.03292209 10.36816229 -16.30859375 10.5859375 C-20.51663185 11.23332798 -23.12632269 12.9134577 -26 16 C-29.49961625 20.85430641 -29.90325822 26.19080991 -29 32 C-28.01 33.98 -27.02 35.96 -26 38 C-40.52 38 -55.04 38 -70 38 C-69.01 37.505 -69.01 37.505 -68 37 C-68.12117187 36.44014404 -68.24234375 35.88028809 -68.3671875 35.3034668 C-68.91463176 32.76548365 -69.4573656 30.22651567 -70 27.6875 C-70.28617188 26.36588867 -70.28617188 26.36588867 -70.578125 25.01757812 C-70.75859375 24.17001953 -70.9390625 23.32246094 -71.125 22.44921875 C-71.37636719 21.27879028 -71.37636719 21.27879028 -71.6328125 20.0847168 C-72 18 -72 18 -72 15 C-62.90819078 13.04183843 -53.81591306 11.08587147 -44.72302437 9.13272858 C-40.50115025 8.22580181 -36.27944335 7.31811114 -32.05810547 6.40869141 C-27.98661795 5.53158364 -23.91470852 4.65646064 -19.84249496 3.7827301 C-18.286566 3.44852302 -16.73079214 3.11359302 -15.17517471 2.77793884 C-13.00146289 2.30904639 -10.82722087 1.84269436 -8.65283203 1.37695312 C-6.79418015 0.97724304 -6.79418015 0.97724304 -4.89797974 0.56945801 C-2 0 -2 0 0 0 Z " fill="#F7F7F9" transform="translate(306,26)"/>
    <path d="M0 0 C0.50643553 2.22771342 1.0048962 4.45724076 1.5 6.6875 C1.7784375 7.92886719 2.056875 9.17023437 2.34375 10.44921875 C2.89354126 13.42398218 3.13795705 15.99368602 3 19 C2.29875 18.236875 1.5975 17.47375 0.875 16.6875 C-4.54923308 11.61702126 -8.90155799 10.65846086 -16.12109375 10.40625 C-19.25167318 10.83176959 -19.25167318 10.83176959 -22.09472656 13.3972168 C-26.27431781 16.46075115 -30.32701386 17.3358354 -35.36328125 18.23828125 C-36.23647507 18.40877487 -37.10966888 18.57926849 -38.00932312 18.75492859 C-40.77419634 19.29053894 -43.54296544 19.80160562 -46.3125 20.3125 C-48.19105621 20.67356767 -50.06931563 21.03618313 -51.94726562 21.40039062 C-65.47082917 24 -65.47082917 24 -68 24 C-68 26.64 -68 29.28 -68 32 C-70.05137315 28.51783717 -70.56818592 25.22724343 -71.125 21.25 C-71.29257813 20.07953125 -71.46015625 18.9090625 -71.6328125 17.703125 C-71.75398437 16.81109375 -71.87515625 15.9190625 -72 15 C-62.90819078 13.04183843 -53.81591306 11.08587147 -44.72302437 9.13272858 C-40.50115025 8.22580181 -36.27944335 7.31811114 -32.05810547 6.40869141 C-27.98661795 5.53158364 -23.91470852 4.65646064 -19.84249496 3.7827301 C-18.286566 3.44852302 -16.73079214 3.11359302 -15.17517471 2.77793884 C-13.00146289 2.30904639 -10.82722087 1.84269436 -8.65283203 1.37695312 C-6.79418015 0.97724304 -6.79418015 0.97724304 -4.89797974 0.56945801 C-2 0 -2 0 0 0 Z " fill="#DEDEDF" transform="translate(306,26)"/>
    <path d="M0 0 C5.53846154 3.07692308 5.53846154 3.07692308 7 6 C7.39447548 10.18144011 7.45035186 12.30946048 5.125 15.875 C2.21289342 18.78710658 1.3997223 18.96068305 -2.8125 19.375 C-6.45869525 19.35511166 -6.92035679 19.06608692 -9.9375 16.5625 C-10.618125 15.716875 -11.29875 14.87125 -12 14 C-12.33 13.67 -12.66 13.34 -13 13 C-13.4225153 8.35233168 -12.80400795 5.73867726 -10 2 C-6.24543433 -0.50304378 -4.45254066 -0.45280074 0 0 Z " fill="#F5F5F8" transform="translate(296,43)"/>
    <path d="M0 0 C0 2.31 0 4.62 0 7 C-3.10408807 7.05807043 -6.2080364 7.09361914 -9.3125 7.125 C-10.63411133 7.15013672 -10.63411133 7.15013672 -11.98242188 7.17578125 C-12.82998047 7.18222656 -13.67753906 7.18867187 -14.55078125 7.1953125 C-15.33106689 7.20578613 -16.11135254 7.21625977 -16.9152832 7.22705078 C-19 7 -19 7 -22 5 C-15.30850254 1.02127178 -7.73032763 -0.1817256 0 0 Z " fill="#E7E7EC" transform="translate(231,65)"/>
    <path d="M0 0 C2.4375 0.75 2.4375 0.75 4.4375 2.75 C3.86931818 8.31818182 3.86931818 8.31818182 2.4375 9.75 C-0.5 9.9375 -0.5 9.9375 -3.5625 9.75 C-5.5625 7.75 -5.5625 7.75 -5.875 4.75 C-5.771875 3.76 -5.66875 2.77 -5.5625 1.75 C-2.5625 -0.25 -2.5625 -0.25 0 0 Z " fill="#F15D43" transform="translate(142.5625,451.25)"/>
    <path d="M0 0 C2.5 0.25 2.5 0.25 4.5 2.25 C4.75 5.25 4.75 5.25 4.5 8.25 C2.5 10.25 2.5 10.25 0.0625 10.5625 C-2.5 10.25 -2.5 10.25 -4.375 9.0625 C-5.5 7.25 -5.5 7.25 -5.3125 4.6875 C-4.22827241 1.43481722 -3.47807945 0.34780795 0 0 Z " fill="#F25E43" transform="translate(499.5,186.75)"/>
    <path d="M0 0 C2.625 0.3125 2.625 0.3125 4.5625 2 C5.625 4.3125 5.625 4.3125 4.875 7 C3.625 9.3125 3.625 9.3125 2.625 10.3125 C0.25 10.625 0.25 10.625 -2.375 10.3125 C-4.3125 8.625 -4.3125 8.625 -5.375 6.3125 C-3.75111182 0.49356734 -3.75111182 0.49356734 0 0 Z " fill="#4A88EE" transform="translate(53.375,53.6875)"/>
    <path d="M0 0 C2.4375 0.8125 2.4375 0.8125 4.4375 3.8125 C3.89695946 8.35304054 3.89695946 8.35304054 2.4375 9.8125 C-0.5 10 -0.5 10 -3.5625 9.8125 C-5.5625 7.8125 -5.5625 7.8125 -5.875 4.8125 C-5.771875 3.8225 -5.66875 2.8325 -5.5625 1.8125 C-2.5625 -0.1875 -2.5625 -0.1875 0 0 Z " fill="#45E4AE" transform="translate(5.5625,179.1875)"/>
    <path d="M0 0 C3 0.25 3 0.25 5 2.25 C5.375 4.6875 5.375 4.6875 5 7.25 C3.3125 9.1875 3.3125 9.1875 1 10.25 C-1.39263407 9.58228817 -3.22097385 9.02902615 -5 7.25 C-5.1875 4.8125 -5.1875 4.8125 -5 2.25 C-3 0.25 -3 0.25 0 0 Z " fill="#F25D43" transform="translate(452,286.75)"/>
    <path d="M0 0 C3 1 3 1 4.1875 3.375 C5 6 5 6 5 9 C1.62902617 10.49821059 -0.20442119 11 -4 11 C-5.25664978 8.09399739 -6 6.20395416 -6 3 C-5.195625 2.690625 -4.39125 2.38125 -3.5625 2.0625 C-1.10919595 1.23664655 -1.10919595 1.23664655 0 0 Z " fill="#4A89EE" transform="translate(470,466)"/>
    <path d="M0 0 C0 1.32 0 2.64 0 4 C0.66 4 1.32 4 2 4 C2 5.32 2 6.64 2 8 C0.35 8 -1.3 8 -3 8 C-3 8.66 -3 9.32 -3 10 C-4.32 9.67 -5.64 9.34 -7 9 C-7 7.68 -7 6.36 -7 5 C-7.66 5 -8.32 5 -9 5 C-8.8125 3.125 -8.8125 3.125 -8 1 C-4.70594381 -0.82039948 -3.63772813 -1.21257604 0 0 Z " fill="#FBD732" transform="translate(83,342)"/>
    <path d="M0 0 C1.32 0.33 2.64 0.66 4 1 C4.66 3.31 5.32 5.62 6 8 C0.375 11 0.375 11 -3 11 C-3 9.35 -3 7.7 -3 6 C-3.66 6 -4.32 6 -5 6 C-4.67 4.68 -4.34 3.36 -4 2 C-2.68 2 -1.36 2 0 2 C0 1.34 0 0.68 0 0 Z " fill="#FAD732" transform="translate(404,36)"/>
    <path d="M0 0 C0.99 0 1.98 0 3 0 C3 1.65 3 3.3 3 5 C4.98 5 6.96 5 9 5 C9 5.99 9 6.98 9 8 C7.02 8 5.04 8 3 8 C3 9.98 3 11.96 3 14 C2.01 14 1.02 14 0 14 C0 12.02 0 10.04 0 8 C-1.65 8 -3.3 8 -5 8 C-5 7.01 -5 6.02 -5 5 C-3.35 5 -1.7 5 0 5 C0 3.35 0 1.7 0 0 Z " fill="#42E2AF" transform="translate(9,450)"/>
    <path d="M0 0 C0 0.66 0 1.32 0 2 C-3.72728171 2.84191873 -7.45710003 3.6720168 -11.1875 4.5 C-12.24259766 4.73847656 -13.29769531 4.97695312 -14.38476562 5.22265625 C-15.91713867 5.56103516 -15.91713867 5.56103516 -17.48046875 5.90625 C-18.41785889 6.11572266 -19.35524902 6.32519531 -20.32104492 6.54101562 C-22.93971199 6.98967088 -25.34939083 7.08407959 -28 7 C-27.67 6.01 -27.34 5.02 -27 4 C-23.8148163 3.32193683 -20.62654387 2.65964849 -17.4375 2 C-16.54224609 1.80921875 -15.64699219 1.6184375 -14.72460938 1.421875 C-9.70738579 0.39270093 -5.12100455 -0.22479032 0 0 Z " fill="#E6E6ED" transform="translate(158,81)"/>
    <path d="M0 0 C0.99 0 1.98 0 3 0 C3 1.65 3 3.3 3 5 C4.98 5 6.96 5 9 5 C9 5.99 9 6.98 9 8 C7.02 8 5.04 8 3 8 C3 9.65 3 11.3 3 13 C2.01 13 1.02 13 0 13 C0 11.35 0 9.7 0 8 C-1.65 8 -3.3 8 -5 8 C-5 7.01 -5 6.02 -5 5 C-3.35 5 -1.7 5 0 5 C0 3.35 0 1.7 0 0 Z " fill="#42E3AE" transform="translate(277,0)"/>
    <path d="M0 0 C0.66 0.33 1.32 0.66 2 1 C2.4140625 3.28515625 2.4140625 3.28515625 2.625 6.0625 C2.69976562 6.98160156 2.77453125 7.90070312 2.8515625 8.84765625 C2.90054687 9.55792969 2.94953125 10.26820312 3 11 C1.02 11 -0.96 11 -3 11 C-2.01 7.37 -1.02 3.74 0 0 Z " fill="#D6D6DD" transform="translate(310,53)"/>
    <path d="M0 0 C0 1.32 0 2.64 0 4 C-5.28 4 -10.56 4 -16 4 C-16 3.67 -16 3.34 -16 3 C-13.70887834 2.49750857 -11.41708499 1.99807883 -9.125 1.5 C-7.84882813 1.2215625 -6.57265625 0.943125 -5.2578125 0.65625 C-2 0 -2 0 0 0 Z " fill="#F8F8F8" transform="translate(231,67)"/>
</svg>
