<?xml version="1.0" encoding="UTF-8"?>
<svg version="1.1" xmlns="http://www.w3.org/2000/svg" width="661" height="100">
    <path d="M0 0 C3.54224522 -0.55101592 5.42541568 -0.32232779 8.5625 1.4375 C12.49529242 5.57197408 15.86490683 9.73730433 16.10961914 15.64746094 C15.38884693 23.45302761 13.72098273 30.72388508 11.5625 38.25 C10.93830392 40.48423588 10.31459415 42.7186077 9.69140625 44.953125 C9.3989502 45.99017578 9.10649414 47.02722656 8.80517578 48.09570312 C7.80161336 51.71558748 6.8858621 55.34971395 6 59 C6.47308594 58.32195313 6.94617188 57.64390625 7.43359375 56.9453125 C21.34545455 37.36565657 21.34545455 37.36565657 30 34 C33.8600242 33.72428399 35.92043259 34.07656837 38.890625 36.6171875 C44.74108672 42.93470289 47.61410702 48.98446844 47.3515625 57.6484375 C45.89612535 71.52360502 42.63473156 87.2547694 32.7734375 97.6328125 C31 99 31 99 27.6875 99.625 C25 99 25 99 23 97 C21.97142648 89.14447874 23.70229591 81.5888432 25.5625 74 C26.05009469 71.9808742 26.53090184 69.96009349 27.00390625 67.9375 C27.21861572 67.05964844 27.4333252 66.18179688 27.65454102 65.27734375 C28.20044505 62.84311397 28.20044505 62.84311397 27 60 C22.30083983 62.79501423 19.27550911 65.77202057 16.1875 70.3125 C15.7651709 70.91698975 15.3428418 71.52147949 14.90771484 72.14428711 C11.38221909 77.26433713 8.14956925 82.55321617 5.04370117 87.93676758 C-0.30049506 97.15024753 -0.30049506 97.15024753 -4 99 C-7.57699526 99.38709949 -9.35623253 99.45537398 -12.3359375 97.34765625 C-13.00882812 96.59355469 -13.68171875 95.83945313 -14.375 95.0625 C-15.40753906 93.96615234 -15.40753906 93.96615234 -16.4609375 92.84765625 C-20.52814825 85.32228408 -17.04413762 75.46984531 -15.26171875 67.62890625 C-14.83139012 65.6773096 -14.4010665 63.72571184 -13.97101307 61.77405453 C-13.36923463 59.0539141 -12.75895124 56.33571112 -12.14855957 53.61749268 C-10.94519276 48.25395587 -9.75357301 42.88780737 -8.56830215 37.5202446 C-8.13975003 35.58012927 -7.70963578 33.64035921 -7.2795105 31.70059204 C-5.56394645 23.87103143 -4.01851089 16.04613043 -2.90177917 8.10731506 C-2.40636609 4.71922367 -1.94364221 2.91546331 0 0 Z M4 61 C5 63 5 63 5 63 Z " fill="#A0A6FC" transform="translate(452,0)"/>
    <path d="M0 0 C3.21318943 2.49827442 5.20682761 5.09544912 6.09765625 9.0546875 C6.09765625 11.6796875 6.09765625 11.6796875 5.09765625 14.0546875 C0.82704572 16.56079428 -3.35585184 17.79578878 -8.15234375 18.9296875 C-13.85591923 20.3395759 -18.90561157 22.24243443 -24.046875 25.1015625 C-25.90234375 26.0546875 -25.90234375 26.0546875 -27.90234375 26.0546875 C-26.48628904 31.47787574 -22.88335888 33.93041372 -18.71484375 37.3046875 C-10.57627922 44.12927326 -2.043416 51.52869822 -0.5546875 62.65234375 C-0.18825794 69.48296661 -1.39927966 73.89583738 -5.90234375 79.0546875 C-12.19076097 85.72587794 -20.25286079 90.68689832 -29.5625 91.29296875 C-40.43182015 91.56938093 -48.57704784 90.76507809 -57.33984375 83.7421875 C-60.87487579 80.3788979 -62.65568018 77.79200907 -63.90234375 73.0546875 C-63.83916685 65.9915106 -63.83916685 65.9915106 -61.90234375 64.0546875 C-57.74451082 63.46422602 -56.15394868 63.88774584 -52.60546875 66.2421875 C-51.44959475 67.17372305 -50.29870534 68.11147051 -49.15234375 69.0546875 C-44.24442115 72.80719522 -40.58917356 75.39733238 -34.15234375 74.65625 C-28.35762732 73.10696818 -23.84658149 70.65629819 -19.90234375 66.0546875 C-22.0480468 58.42552109 -28.68698377 53.18003733 -34.40234375 48.1171875 C-46.10778236 37.54192917 -46.10778236 37.54192917 -47.46484375 31.5859375 C-47.76267518 25.55485111 -46.47039958 19.96298321 -42.90234375 15.0546875 C-33.81242944 6.48374754 -12.94655077 -6.43339894 0 0 Z " fill="#939BFC" transform="translate(426.90234375,7.9453125)"/>
    <path d="M0 0 C5.61442365 0 8.42576614 2.71607997 12.36328125 6.30859375 C14 8 14 8 15 10 C14.91089842 12.55807762 14.76705754 15.0762601 14.5625 17.625 C14.51029297 18.33140625 14.45808594 19.0378125 14.40429688 19.765625 C14.27458793 21.51079987 14.13795046 23.25545725 14 25 C14.65226562 23.99839844 15.30453125 22.99679688 15.9765625 21.96484375 C28.18111525 3.34951196 28.18111525 3.34951196 34 1 C39.33535763 0.91107737 42.17020093 1.73029819 46.3125 5.125 C51.16185063 9.83144246 53.11541056 14.25067468 53.375 21 C52.90548673 35.90194281 48.74011761 52.37040602 39 64 C35.5647952 66.29013653 34.014669 66.17842973 30 66 C26.53543992 59.97409199 28.45090533 53.9366568 30.15234375 47.5078125 C30.82409891 45.02469983 31.50502573 42.54431995 32.19042969 40.06494141 C33.8172109 34.05827276 34.84570814 28.24180709 35 22 C30.78259455 24.98088867 28.3196929 28.25771991 25.8125 32.6875 C25.43520752 33.33380371 25.05791504 33.98010742 24.66918945 34.64599609 C23.43718396 36.75894225 22.21848436 38.87923223 21 41 C19.66964451 43.29641186 18.33553728 45.59052883 16.99682617 47.88208008 C16.14338263 49.34405766 15.29436125 50.80862848 14.45043945 52.27612305 C8.14021923 63.12752455 8.14021923 63.12752455 3 66 C0.1875 66.625 0.1875 66.625 -3 66 C-6.20280773 63.47975785 -9.16522268 60.66955464 -11 57 C-10.74658692 51.76279626 -9.90816102 47.53992742 -8.05078125 42.64453125 C-5.57127397 35.37487673 -4.96105441 28.18496409 -4.375 20.5625 C-4.1634327 17.91695283 -3.9393679 15.27312093 -3.7109375 12.62890625 C-3.62118652 11.47463135 -3.53143555 10.32035645 -3.43896484 9.13110352 C-2.97959917 5.85448243 -2.4263107 2.4263107 0 0 Z M12 27 C13 29 13 29 13 29 Z " fill="#585CFC" transform="translate(46,33)"/>
    <path d="M0 0 C4.56405397 5.47686476 6.34188457 8.72669007 6.5 16 C6.55607422 17.68222656 6.55607422 17.68222656 6.61328125 19.3984375 C6.10608133 23.2419892 4.82068938 24.8515816 2.1875 27.625 C-0.625 27.4375 -0.625 27.4375 -3.8125 26.625 C-6.86741916 22.89120991 -8.20914265 18.12967065 -9.8125 13.625 C-10.8025 13.955 -11.7925 14.285 -12.8125 14.625 C-13.82259848 16.9749027 -14.63084111 19.19150985 -15.375 21.625 C-15.59115967 22.30183838 -15.80731934 22.97867676 -16.0300293 23.67602539 C-17.57719385 28.60941467 -18.83234881 33.54603475 -19.8125 38.625 C-18.05873047 38.57279297 -18.05873047 38.57279297 -16.26953125 38.51953125 C-14.72136859 38.49138284 -13.17319032 38.46408381 -11.625 38.4375 C-10.47161133 38.39979492 -10.47161133 38.39979492 -9.29492188 38.36132812 C-4.62324211 38.30117774 -1.61264137 38.5907786 2.1875 41.625 C3.25 43.5625 3.25 43.5625 3.1875 45.625 C0.23495266 49.26054625 -2.48677815 50.47376892 -6.9375 51.75 C-7.99195313 52.06195313 -9.04640625 52.37390625 -10.1328125 52.6953125 C-14.66323023 53.83994033 -19.22370264 54.74869516 -23.8125 55.625 C-24.00360352 56.39577881 -24.19470703 57.16655762 -24.39160156 57.96069336 C-25.27343965 61.49680042 -26.16786624 65.02960953 -27.0625 68.5625 C-27.36285156 69.77486328 -27.66320312 70.98722656 -27.97265625 72.23632812 C-32.26207386 89.07457386 -32.26207386 89.07457386 -36.8125 93.625 C-40.98542095 93.625 -42.54803829 92.86071587 -45.6875 90.0625 C-48.14385879 87.33578726 -48.17280736 84.5262188 -48.07470703 80.94555664 C-47.57407561 76.51492199 -46.17714898 72.35418244 -44.8125 68.125 C-44.52632812 67.2071875 -44.24015625 66.289375 -43.9453125 65.34375 C-43.24438888 63.10079441 -42.53333092 60.86162076 -41.8125 58.625 C-42.8025 59.12 -42.8025 59.12 -43.8125 59.625 C-47.9316283 60.18669931 -49.54543198 59.79128763 -53.125 57.5625 C-56.25247667 54.14409527 -56.63382624 52.18118095 -56.8125 47.625 C-50.7519075 44.25938409 -45.77300253 42.01169459 -38.8125 41.625 C-38.68875 39.8615625 -38.68875 39.8615625 -38.5625 38.0625 C-37.11977058 25.19985599 -33.23640873 9.30651786 -23.3125 0.375 C-15.75446231 -4.91562639 -7.3905965 -6.24094815 0 0 Z " fill="#BFC0FC" transform="translate(652.8125,5.375)"/>
    <path d="M0 0 C6.26746534 3.47918352 11.63363922 9.72393887 13.9375 16.5 C14.68442943 21.61940393 14.64190717 25.25554733 12.0625 29.8125 C7.70244823 34.22266731 0.01418277 38.31574315 -6.22314453 38.59765625 C-7.44686768 38.58025391 -7.44686768 38.58025391 -8.6953125 38.5625 C-9.58347656 38.55476563 -10.47164062 38.54703125 -11.38671875 38.5390625 C-12.31097656 38.52617188 -13.23523438 38.51328125 -14.1875 38.5 C-16.0233801 38.47460747 -17.85932682 38.45353481 -19.6953125 38.4375 C-20.50887207 38.42589844 -21.32243164 38.41429687 -22.16064453 38.40234375 C-24.07346105 38.28765579 -24.07346105 38.28765579 -25.0625 39.5 C-25.13398199 40.85243917 -25.14649454 42.20834367 -25.125 43.5625 C-25.104375 44.861875 -25.08375 46.16125 -25.0625 47.5 C-18.47464348 49.69595217 -9.14534293 48.27551636 -2.5 46.375 C1.16697509 45.44158816 3.3507629 45.30442097 6.9375 46.5 C8.5 48.25 8.5 48.25 8.9375 50.5 C6.41353763 56.43873499 1.87012099 59.29518818 -3.875 61.75 C-11.97304039 64.51518452 -22.68953164 65.48362417 -30.6875 61.9375 C-36.16691132 58.51892922 -40.08990289 53.63201001 -42.0625 47.5 C-43.62938339 34.43714057 -40.05855382 23.89556829 -32.25 13.5625 C-24.48210994 3.77008467 -13.03454512 -5.66172327 0 0 Z M-18.0625 22.5 C-18.3925 23.49 -18.7225 24.48 -19.0625 25.5 C-17.33369018 25.55449838 -15.60437288 25.59301688 -13.875 25.625 C-12.43060547 25.65980469 -12.43060547 25.65980469 -10.95703125 25.6953125 C-7.89463233 25.4886729 -5.79193785 24.88394032 -3.0625 23.5 C-1.71839738 21.48264795 -1.71839738 21.48264795 -1.0625 19.5 C-3.21446907 16.85142268 -4.52178678 15.63217434 -7.875 14.8125 C-12.57600251 15.82644172 -15.16068318 18.76680866 -18.0625 22.5 Z " fill="#ADB1FC" transform="translate(547.0625,35.5)"/>
    <path d="M0 0 C6.40838705 5.2933277 11.22809171 11.21086865 12.18359375 19.6484375 C12.11384031 22.93953154 11.4924261 24.92727907 9.4453125 27.53125 C0.02481422 36.47500242 -9.64796116 37.12997935 -22.046875 36.8515625 C-24.51941713 36.78229821 -25.81852829 36.7274546 -28.046875 35.61328125 C-28.046875 39.24328125 -28.046875 42.87328125 -28.046875 46.61328125 C-19.31739839 46.87386264 -11.12078019 45.73315752 -2.546875 44.15234375 C2.43143953 43.32872554 2.43143953 43.32872554 5.015625 44.73828125 C5.953125 46.61328125 5.953125 46.61328125 6.078125 48.92578125 C3.7822184 54.41044701 -1.20408727 57.46412069 -6.421875 59.98828125 C-14.39746909 62.89961774 -25.862577 63.5107432 -33.734375 60.11328125 C-39.29947186 56.59914144 -43.01118654 50.76661229 -45.046875 44.61328125 C-46.65399942 31.56941096 -41.76241116 20.87539909 -34.046875 10.61328125 C-25.29916934 0.50310108 -12.93113225 -9.03651959 0 0 Z M-20.046875 19.61328125 C-21.2421516 21.72044436 -21.2421516 21.72044436 -22.046875 23.61328125 C-15.23089113 23.94606889 -10.12565434 23.8552969 -4.046875 20.61328125 C-4.60387572 17.38267706 -5.33902622 15.54745895 -8.046875 13.61328125 C-13.29496895 12.30125776 -16.71926243 15.95877475 -20.046875 19.61328125 Z " fill="#868FFC" transform="translate(351.046875,37.38671875)"/>
    <path d="M0 0 C5.53064379 3.09716052 10.644098 8.51234322 12.875 14.5 C13.79857752 24.13312835 13.24500591 32.719147 8.875 41.5 C8.45089844 42.36238281 8.02679688 43.22476563 7.58984375 44.11328125 C3.03926786 52.46656679 -3.67522856 59.38730422 -12.671875 62.86328125 C-18.40518715 64.35138615 -24.25684337 65.14551294 -29.5625 62.1015625 C-34.36792474 58.05581887 -37.83488443 53.72620994 -39.125 47.5 C-40.45459286 31.9539912 -35.00880229 18.51566305 -25.18359375 6.703125 C-18.32281505 -0.63934025 -9.64420767 -4.26751489 0 0 Z M-7.125 11.5 C-15.07880075 19.45380075 -21.23582999 30.74717053 -21.3125 42.125 C-21.32667969 43.08664063 -21.34085938 44.04828125 -21.35546875 45.0390625 C-21.37233824 47.67805749 -21.37233824 47.67805749 -19.125 49.5 C-10.81751922 43.27454294 -6.17470384 35.74851921 -4.125 25.5 C-3.71035901 20.40962015 -3.73091254 16.13854445 -6.125 11.5 C-6.455 11.5 -6.785 11.5 -7.125 11.5 Z " fill="#6972FC" transform="translate(195.125,35.5)"/>
    <path d="M0 0 C5.87693296 0.9222924 9.72026706 4.69611758 13.4375 9.125 C17.15362346 15.33467862 16.92802559 22.8302461 17.2265625 29.8671875 C17.29949266 33.13476096 17.29949266 33.13476096 18.4375 36.125 C18.74453857 35.38451416 19.05157715 34.64402832 19.36791992 33.88110352 C20.78145436 30.48092275 22.20316128 27.08421611 23.625 23.6875 C24.10775391 22.52283203 24.59050781 21.35816406 25.08789062 20.15820312 C32.76232215 1.87348372 32.76232215 1.87348372 37.375 -0.1875 C41.60519583 0.24415264 44.4421285 2.1296285 47.4375 5.125 C47.98513951 11.20459226 46.44831327 15.67636704 44.125 21.25 C43.77179688 22.11165771 43.41859375 22.97331543 43.0546875 23.86108398 C27.51791695 60.83766356 27.51791695 60.83766356 16.9375 65.75 C11.78186184 64.82935033 8.84851309 62.01178088 5.4375 58.125 C3.84578279 55.08207198 3.03223864 52.02070928 2.25 48.6875 C2.01716309 47.78660645 1.78432617 46.88571289 1.54443359 45.95751953 C0.80297172 43.0213305 0.11477309 40.07661973 -0.5625 37.125 C-0.80661621 36.08811035 -1.05073242 35.0512207 -1.30224609 33.98291016 C-2.03696429 30.8265763 -2.74444658 27.66572917 -3.4375 24.5 C-3.65301514 23.53006104 -3.86853027 22.56012207 -4.09057617 21.56079102 C-5.41423709 15.1575196 -6.36446104 8.66395538 -5.5625 2.125 C-3.5625 0.125 -3.5625 0.125 0 0 Z " fill="#6168FC" transform="translate(110.5625,33.875)"/>
    <path d="M0 0 C3.86408555 3.10806881 7.15818899 6.59126973 8.875 11.3125 C9 14.5625 9 14.5625 8.875 17.3125 C7.1875 18.4375 7.1875 18.4375 4.875 19.3125 C3.19062256 18.69193989 1.52491582 18.01960678 -0.125 17.3125 C-4.12848656 16.81206418 -5.56834034 16.90765661 -8.875 19.3125 C-9.6175 19.9725 -10.36 20.6325 -11.125 21.3125 C-11.785 21.3125 -12.445 21.3125 -13.125 21.3125 C-13.393125 21.88097656 -13.66125 22.44945313 -13.9375 23.03515625 C-15.59238717 26.2088379 -17.64593167 29.06133927 -19.6875 31.99609375 C-22.72895071 36.8971271 -23.35195368 40.52518104 -23.125 46.3125 C-10.95200915 45.93775619 -10.95200915 45.93775619 0.76171875 42.8359375 C3.40329611 42.18164662 5.27030299 42.62825385 7.875 43.3125 C9.04585006 46.62990851 9.01652943 47.99574365 7.5625 51.25 C4.34684549 55.5672109 -0.42927615 57.89327449 -5.125 60.3125 C-5.78757812 60.65667969 -6.45015625 61.00085938 -7.1328125 61.35546875 C-13.52237967 64.20270266 -20.95083345 64.66894031 -27.61328125 62.50390625 C-33.66676585 59.48239149 -38.15102801 54.72602306 -42.125 49.3125 C-44.82312959 41.21811123 -42.37503444 33.88632656 -39.125 26.3125 C-32.84111703 14.50834516 -24.40163331 4.31418496 -11.9375 -1.0625 C-7.17510029 -2.12081105 -4.38133407 -2.3659204 0 0 Z " fill="#7983FC" transform="translate(288.125,35.6875)"/>
    <path d="M0 0 C4.05987714 -0.73815948 5.66176217 -0.22323697 9.125 2.0625 C14.2749809 6.96853444 16.24120709 10.90785174 16.4375 18 C15.6844711 41.02810963 10.63844538 63.87458013 3.8125 85.8125 C3.57490967 86.5765918 3.33731934 87.34068359 3.0925293 88.12792969 C1.804646 92.0794205 0.3058278 95.53785738 -2 99 C-5.0995833 98.9262004 -7.27614543 98.60238013 -9.69921875 96.5859375 C-13.16727985 92.77358947 -14.44159572 90.21059272 -15 85 C-14.55029297 82.16455078 -14.55029297 82.16455078 -13.7421875 79.1953125 C-13.30156982 77.50825195 -13.30156982 77.50825195 -12.85205078 75.78710938 C-12.52962402 74.57861328 -12.20719727 73.37011719 -11.875 72.125 C-9.13656544 61.31416052 -6.83991582 50.52153752 -5.125 39.5 C-5.02051544 38.82895233 -4.91603088 38.15790466 -4.80838013 37.46652222 C-3.36793788 28.03509931 -2.41106927 18.64780481 -2.27587891 9.1015625 C-2.18222846 3.27334269 -2.18222846 3.27334269 0 0 Z " fill="#B7B9FC" transform="translate(580,0)"/>
    <path d="M0 0 C3.21875718 1.1136216 4.55668604 2.56453263 6.76171875 5.140625 C7.43589844 5.90890625 8.11007813 6.6771875 8.8046875 7.46875 C12.50027326 12.5267261 12.82179592 16.30662465 12.13085938 22.34423828 C11.01170781 29.4744118 9.47074095 36.51741554 7.92822266 43.56616211 C7.33270927 46.28929992 6.74753323 49.01449389 6.1640625 51.74023438 C4.20039378 60.85292957 2.12955375 69.93621615 -0.09765625 78.98828125 C-0.30094543 79.82532089 -0.50423462 80.66236053 -0.71368408 81.52476501 C-0.90839294 82.30300125 -1.10310181 83.08123749 -1.30371094 83.88305664 C-1.55686066 84.90261192 -1.55686066 84.90261192 -1.81512451 85.94276428 C-2.479469 88.06187711 -3.38492092 89.93227379 -4.42578125 91.890625 C-7.55319479 91.81616277 -9.71013469 91.52899517 -12.08984375 89.40625 C-18.49533663 82.0225784 -18.49533663 82.0225784 -18.34179688 77.31640625 C-18.17357422 76.28902344 -18.00535156 75.26164062 -17.83203125 74.203125 C-17.6309375 72.95789063 -17.42984375 71.71265625 -17.22265625 70.4296875 C-16.95933297 68.91626438 -16.69348574 67.40327929 -16.42578125 65.890625 C-16.26980469 65.00084961 -16.11382813 64.11107422 -15.953125 63.19433594 C-14.44565186 54.63568596 -12.87787896 46.08815442 -11.31201172 37.54003906 C-10.71236473 34.26145593 -10.11548866 30.98238062 -9.51953125 27.703125 C-9.23335937 26.14005615 -9.23335937 26.14005615 -8.94140625 24.54541016 C-7.722152 17.8038421 -6.71306177 11.08517035 -5.99804688 4.26953125 C-5.16020822 0.78663883 -3.52987623 -0.15915706 0 0 Z " fill="#5253FC" transform="translate(18.42578125,7.109375)"/>
    <path d="M0 0 C3.22370162 0 5.28283534 0.3406712 7.6953125 2.55859375 C11.90862063 7.45376576 13.36546013 10.40148153 13.29443359 16.88818359 C12.7606488 22.52966032 11.07389728 27.88450196 9.42944336 33.28491211 C8.81793365 35.29464229 8.2266479 37.30944607 7.63867188 39.32617188 C2.67023473 56.16744543 2.67023473 56.16744543 -1 64 C-3.80915474 65.40457737 -5.88810534 65.24895157 -9 65 C-11.3125 63.9375 -11.3125 63.9375 -13 62 C-14.54654057 55.74344633 -13.38934494 50.4936272 -12.015625 44.28125 C-11.79936462 43.26454224 -11.58310425 42.24783447 -11.36029053 41.20031738 C-10.90180903 39.05761229 -10.43751684 36.91614327 -9.96777344 34.77587891 C-9.25300089 31.51369591 -8.55869173 28.24765412 -7.8671875 24.98046875 C-7.4178747 22.89296878 -6.96739255 20.8057201 -6.515625 18.71875 C-6.30923401 17.74877075 -6.10284302 16.7787915 -5.89019775 15.77941895 C-3.07820394 3.07820394 -3.07820394 3.07820394 0 0 Z " fill="#717AFC" transform="translate(226,34)"/>
    <path d="M0 0 C5.26476496 1.64523905 7.51569506 6.34625578 10.15234375 10.94921875 C11.6269207 14.40801905 11.29680351 17.19777579 11 20.9375 C9.58103616 23.13689395 8.50694908 23.69276596 6.1875 24.8125 C2.67231014 25.01336799 0.95165868 23.84739679 -2 21.9375 C-5.60166286 18.64744982 -8.54460355 15.65399432 -9.8125 10.875 C-8.34107485 5.55523215 -5.33642428 1.66763259 0 0 Z " fill="#737CFB" transform="translate(234,8.0625)"/>
</svg>
